<svg width="386" height="112" viewBox="0 0 386 112" fill="none" xmlns="http://www.w3.org/2000/svg">
<mask id="path-1-outside-1_1_9910" maskUnits="userSpaceOnUse" x="119" y="23" width="262" height="72" fill="black">
<rect fill="white" x="119" y="23" width="262" height="72"/>
<path d="M144.601 46.2041C144.259 47.5713 143.966 48.9141 143.722 50.2324L142.843 54.1875L155.66 51.4775L155.001 61.7314C149.972 62.5127 145.235 63.416 140.792 64.4414C139.62 70.9844 138.692 77.4541 138.009 83.8506L125.484 87.0732L134.054 34.5586L159.103 31.043L158.224 44.5928C153.341 45.0322 148.8 45.5693 144.601 46.2041ZM162.179 35.291L174.776 32.9473C171.261 46.4727 168.551 58.9482 166.646 70.374L179.537 68.3965L178.438 82.0195C171.798 82.6055 163.375 84.29 153.17 87.0732L162.179 35.291ZM206.563 29.7246C211.739 29.7246 215.401 32.6055 217.55 38.3672C218.673 41.3457 219.234 44.6172 219.234 48.1816C219.234 51.5996 218.722 55.3105 217.696 59.3145C215.89 66.1504 212.765 72.4492 208.321 78.2109C202.901 85.2422 197.164 88.7578 191.109 88.7578C185.885 88.7578 182.174 85.877 179.977 80.1152C178.902 77.2832 178.365 74.1094 178.365 70.5938C178.365 67.127 178.902 63.3672 179.977 59.3145C181.783 52.4297 184.884 46.1064 189.278 40.3447C194.698 33.2646 200.46 29.7246 206.563 29.7246ZM203.927 47.8887C201.241 47.8887 198.507 50.0859 195.724 54.4805C193.478 57.9473 191.915 61.3408 191.036 64.6611C190.597 66.4189 190.377 68.0059 190.377 69.4219C190.377 71.4238 190.865 73.0596 191.842 74.3291C192.965 75.7451 194.527 76.4531 196.529 76.4531C199.264 76.4531 201.729 75.0127 203.927 72.1318C205.685 69.8369 206.954 67.127 207.735 64.002C208.663 60.3398 208.858 56.7266 208.321 53.1621C207.735 49.6465 206.271 47.8887 203.927 47.8887ZM240.621 31.7021C245.699 31.7021 249.435 34.4609 251.827 39.9785L243.551 49.0605C242.428 47.8887 241.134 47.3027 239.669 47.3027C237.081 47.3027 234.396 49.5244 231.612 53.9678C229.317 57.6299 227.828 61.0479 227.145 64.2217C226.803 65.7354 226.632 67.1025 226.632 68.3232C226.632 71.5947 227.828 73.8408 230.221 75.0615C231.002 75.4521 231.832 75.6475 232.711 75.6475C235.25 75.6475 237.911 73.7676 240.694 70.0078L243.038 78.7236C238.204 84.0947 233.297 86.7803 228.316 86.7803C223.238 86.7803 219.527 84.0947 217.184 78.7236C215.768 75.5986 215.06 72.1074 215.06 68.25C215.06 65.418 215.426 62.415 216.158 59.2412C217.623 52.7471 220.406 46.8145 224.508 41.4434C229.439 34.9492 234.811 31.7021 240.621 31.7021ZM252.267 35.291L264.864 32.9473C263.692 37.2441 262.862 40.6377 262.374 43.1279C266.622 39.417 270.504 35.8525 274.02 32.4346L283.248 38.4404L268.819 51.2578L276.876 81.0674L263.692 88.0986L258.565 60.4863C257.052 68.3477 255.831 76.1357 254.903 83.8506L243.331 87.0732L252.267 35.291ZM294.161 46.2041C293.771 47.6201 293.429 49.0117 293.136 50.3789L292.33 54.4072L304.049 51.917L303.39 62.0244C297.823 63.001 293.453 63.8555 290.279 64.5879C290.084 65.5645 289.913 66.541 289.767 67.5176L289.254 70.374L302.877 68.3965L301.925 82.0195C294.894 82.6055 285.982 84.29 275.191 87.0732L283.907 34.5586L308.297 31.043L307.345 44.5928C302.56 45.0322 298.165 45.5693 294.161 46.2041ZM311.227 35.2178C318.893 32.9229 325.167 31.7754 330.05 31.7754C336.642 31.7754 339.913 34.0703 339.864 38.6602C339.815 45.252 335.665 51.8682 327.413 58.5088C328.097 60.3643 330.929 66.1992 335.909 76.0137C333.37 78.3574 329.537 81.7998 324.41 86.3408L316.573 66.126H316.5C315.328 72.5225 314.449 78.4307 313.863 83.8506L302.291 87.0732C302.389 85.999 302.926 82.752 303.902 77.332L311.227 35.2178ZM320.455 46.79C320.016 48.4502 319.625 50.1104 319.283 51.7705L318.258 56.751C319.967 55.8721 321.651 54.7246 323.312 53.3086C325.216 51.6484 326.485 50.0615 327.12 48.5479C327.364 48.1084 327.486 47.6934 327.486 47.3027C327.486 46.2285 326.778 45.6914 325.362 45.6914C324.239 45.6914 322.604 46.0576 320.455 46.79ZM372.896 47.1562C370.846 49.207 366.793 53.6016 360.738 60.3398C358.688 62.5371 356.661 64.7344 354.659 66.9316C352.022 69.8125 350.167 72.0586 349.093 73.6699L366.378 72.498L364.84 86.1943C352.193 86.5361 341.646 87.293 333.199 88.4648L333.272 74.915C335.323 72.5225 339.4 68.0547 345.504 61.5117L358.175 47.9619C353.976 48.3037 349.459 48.8652 344.625 49.6465L345.138 35.8037L374.801 33.46C374.361 36.4873 373.727 41.0527 372.896 47.1562Z"/>
</mask>
<path d="M144.601 46.2041C144.259 47.5713 143.966 48.9141 143.722 50.2324L142.843 54.1875L155.66 51.4775L155.001 61.7314C149.972 62.5127 145.235 63.416 140.792 64.4414C139.62 70.9844 138.692 77.4541 138.009 83.8506L125.484 87.0732L134.054 34.5586L159.103 31.043L158.224 44.5928C153.341 45.0322 148.8 45.5693 144.601 46.2041ZM162.179 35.291L174.776 32.9473C171.261 46.4727 168.551 58.9482 166.646 70.374L179.537 68.3965L178.438 82.0195C171.798 82.6055 163.375 84.29 153.17 87.0732L162.179 35.291ZM206.563 29.7246C211.739 29.7246 215.401 32.6055 217.55 38.3672C218.673 41.3457 219.234 44.6172 219.234 48.1816C219.234 51.5996 218.722 55.3105 217.696 59.3145C215.89 66.1504 212.765 72.4492 208.321 78.2109C202.901 85.2422 197.164 88.7578 191.109 88.7578C185.885 88.7578 182.174 85.877 179.977 80.1152C178.902 77.2832 178.365 74.1094 178.365 70.5938C178.365 67.127 178.902 63.3672 179.977 59.3145C181.783 52.4297 184.884 46.1064 189.278 40.3447C194.698 33.2646 200.46 29.7246 206.563 29.7246ZM203.927 47.8887C201.241 47.8887 198.507 50.0859 195.724 54.4805C193.478 57.9473 191.915 61.3408 191.036 64.6611C190.597 66.4189 190.377 68.0059 190.377 69.4219C190.377 71.4238 190.865 73.0596 191.842 74.3291C192.965 75.7451 194.527 76.4531 196.529 76.4531C199.264 76.4531 201.729 75.0127 203.927 72.1318C205.685 69.8369 206.954 67.127 207.735 64.002C208.663 60.3398 208.858 56.7266 208.321 53.1621C207.735 49.6465 206.271 47.8887 203.927 47.8887ZM240.621 31.7021C245.699 31.7021 249.435 34.4609 251.827 39.9785L243.551 49.0605C242.428 47.8887 241.134 47.3027 239.669 47.3027C237.081 47.3027 234.396 49.5244 231.612 53.9678C229.317 57.6299 227.828 61.0479 227.145 64.2217C226.803 65.7354 226.632 67.1025 226.632 68.3232C226.632 71.5947 227.828 73.8408 230.221 75.0615C231.002 75.4521 231.832 75.6475 232.711 75.6475C235.25 75.6475 237.911 73.7676 240.694 70.0078L243.038 78.7236C238.204 84.0947 233.297 86.7803 228.316 86.7803C223.238 86.7803 219.527 84.0947 217.184 78.7236C215.768 75.5986 215.06 72.1074 215.06 68.25C215.06 65.418 215.426 62.415 216.158 59.2412C217.623 52.7471 220.406 46.8145 224.508 41.4434C229.439 34.9492 234.811 31.7021 240.621 31.7021ZM252.267 35.291L264.864 32.9473C263.692 37.2441 262.862 40.6377 262.374 43.1279C266.622 39.417 270.504 35.8525 274.02 32.4346L283.248 38.4404L268.819 51.2578L276.876 81.0674L263.692 88.0986L258.565 60.4863C257.052 68.3477 255.831 76.1357 254.903 83.8506L243.331 87.0732L252.267 35.291ZM294.161 46.2041C293.771 47.6201 293.429 49.0117 293.136 50.3789L292.33 54.4072L304.049 51.917L303.39 62.0244C297.823 63.001 293.453 63.8555 290.279 64.5879C290.084 65.5645 289.913 66.541 289.767 67.5176L289.254 70.374L302.877 68.3965L301.925 82.0195C294.894 82.6055 285.982 84.29 275.191 87.0732L283.907 34.5586L308.297 31.043L307.345 44.5928C302.56 45.0322 298.165 45.5693 294.161 46.2041ZM311.227 35.2178C318.893 32.9229 325.167 31.7754 330.05 31.7754C336.642 31.7754 339.913 34.0703 339.864 38.6602C339.815 45.252 335.665 51.8682 327.413 58.5088C328.097 60.3643 330.929 66.1992 335.909 76.0137C333.37 78.3574 329.537 81.7998 324.41 86.3408L316.573 66.126H316.5C315.328 72.5225 314.449 78.4307 313.863 83.8506L302.291 87.0732C302.389 85.999 302.926 82.752 303.902 77.332L311.227 35.2178ZM320.455 46.79C320.016 48.4502 319.625 50.1104 319.283 51.7705L318.258 56.751C319.967 55.8721 321.651 54.7246 323.312 53.3086C325.216 51.6484 326.485 50.0615 327.12 48.5479C327.364 48.1084 327.486 47.6934 327.486 47.3027C327.486 46.2285 326.778 45.6914 325.362 45.6914C324.239 45.6914 322.604 46.0576 320.455 46.79ZM372.896 47.1562C370.846 49.207 366.793 53.6016 360.738 60.3398C358.688 62.5371 356.661 64.7344 354.659 66.9316C352.022 69.8125 350.167 72.0586 349.093 73.6699L366.378 72.498L364.84 86.1943C352.193 86.5361 341.646 87.293 333.199 88.4648L333.272 74.915C335.323 72.5225 339.4 68.0547 345.504 61.5117L358.175 47.9619C353.976 48.3037 349.459 48.8652 344.625 49.6465L345.138 35.8037L374.801 33.46C374.361 36.4873 373.727 41.0527 372.896 47.1562Z" fill="white"/>
<path d="M144.601 46.2041L143.704 40.2715C141.309 40.6335 139.367 42.3995 138.78 44.7489L144.601 46.2041ZM143.722 50.2324L149.579 51.534C149.594 51.4646 149.608 51.3949 149.621 51.325L143.722 50.2324ZM142.843 54.1875L136.986 52.8859C136.543 54.8777 137.143 56.958 138.578 58.4082C140.014 59.8584 142.088 60.4798 144.084 60.0577L142.843 54.1875ZM155.66 51.4775L161.648 51.8625C161.768 49.9896 161.005 48.1684 159.586 46.9404C158.167 45.7124 156.255 45.2191 154.419 45.6073L155.66 51.4775ZM155.001 61.7314L155.922 67.6603C158.702 67.2285 160.808 64.9236 160.989 62.1164L155.001 61.7314ZM140.792 64.4414L139.443 58.5951C137.102 59.1352 135.309 61.0192 134.886 63.3836L140.792 64.4414ZM138.009 83.8506L139.504 89.6613C141.927 89.0378 143.709 86.9761 143.975 84.4882L138.009 83.8506ZM125.484 87.0732L119.563 86.1069C119.236 88.1066 119.941 90.1359 121.437 91.5026C122.933 92.8693 125.017 93.3889 126.98 92.884L125.484 87.0732ZM134.054 34.5586L133.22 28.6168C130.617 28.9821 128.555 30.9985 128.132 33.5923L134.054 34.5586ZM159.103 31.043L165.09 31.4313C165.207 29.6304 164.507 27.8725 163.184 26.6449C161.861 25.4173 160.056 24.8504 158.269 25.1012L159.103 31.043ZM158.224 44.5928L158.761 50.5686C161.707 50.3035 164.02 47.9321 164.211 44.9811L158.224 44.5928ZM138.78 44.7489C138.409 46.2301 138.09 47.6939 137.822 49.1399L149.621 51.325C149.842 50.1343 150.108 48.9125 150.421 47.6593L138.78 44.7489ZM137.865 48.9308L136.986 52.8859L148.7 55.4891L149.579 51.534L137.865 48.9308ZM144.084 60.0577L156.901 57.3478L154.419 45.6073L141.602 48.3173L144.084 60.0577ZM149.673 51.0926L149.013 61.3465L160.989 62.1164L161.648 51.8625L149.673 51.0926ZM154.08 55.8026C148.923 56.6036 144.043 57.5335 139.443 58.5951L142.141 70.2878C146.428 69.2985 151.02 68.4218 155.922 67.6603L154.08 55.8026ZM134.886 63.3836C133.69 70.0613 132.742 76.6712 132.043 83.213L143.975 84.4882C144.643 78.237 145.55 71.9075 146.698 65.4992L134.886 63.3836ZM136.514 78.0399L123.989 81.2625L126.98 92.884L139.504 89.6613L136.514 78.0399ZM131.406 88.0395L139.975 35.5249L128.132 33.5923L119.563 86.1069L131.406 88.0395ZM134.888 40.5004L159.936 36.9847L158.269 25.1012L133.22 28.6168L134.888 40.5004ZM153.115 30.6546L152.236 44.2044L164.211 44.9811L165.09 31.4313L153.115 30.6546ZM157.686 38.6169C152.701 39.0656 148.039 39.6162 143.704 40.2715L145.497 52.1367C149.561 51.5224 153.981 50.9989 158.761 50.5686L157.686 38.6169ZM162.179 35.291L161.081 29.3922C158.617 29.8507 156.697 31.793 156.268 34.2626L162.179 35.291ZM174.776 32.9473L180.583 34.4567C181.1 32.4703 180.565 30.3579 179.166 28.8565C177.766 27.3551 175.697 26.6731 173.679 27.0485L174.776 32.9473ZM166.646 70.374L160.728 69.3876C160.412 71.2855 161.025 73.2199 162.377 74.5892C163.728 75.9584 165.655 76.5964 167.556 76.3046L166.646 70.374ZM179.537 68.3965L185.518 68.8788C185.665 67.0501 184.968 65.2543 183.625 64.0044C182.282 62.7545 180.441 62.1877 178.627 62.4659L179.537 68.3965ZM178.438 82.0195L178.966 87.9963C181.88 87.7392 184.184 85.4179 184.419 82.5018L178.438 82.0195ZM153.17 87.0732L147.259 86.0448C146.907 88.0671 147.613 90.1289 149.131 91.5105C150.649 92.8922 152.768 93.4019 154.749 92.8618L153.17 87.0732ZM163.276 41.1898L175.874 38.846L173.679 27.0485L161.081 29.3922L163.276 41.1898ZM168.969 31.4379C165.418 45.102 162.667 57.7545 160.728 69.3876L172.565 71.3604C174.435 60.142 177.104 47.8433 180.583 34.4567L168.969 31.4379ZM167.556 76.3046L180.447 74.3271L178.627 62.4659L165.737 64.4434L167.556 76.3046ZM173.557 67.9142L172.458 81.5372L184.419 82.5018L185.518 68.8788L173.557 67.9142ZM177.911 76.0428C170.771 76.6727 161.966 78.4553 151.591 81.2847L154.749 92.8618C164.784 90.1248 172.824 88.5382 178.966 87.9963L177.911 76.0428ZM159.081 88.1016L168.09 36.3194L156.268 34.2626L147.259 86.0448L159.081 88.1016ZM217.55 38.3672L211.928 40.4635C211.93 40.4703 211.933 40.4772 211.936 40.484L217.55 38.3672ZM217.696 59.3145L223.497 60.8475C223.501 60.8327 223.505 60.8179 223.509 60.803L217.696 59.3145ZM208.321 78.2109L203.57 74.5468L203.569 74.5479L208.321 78.2109ZM179.977 80.1152L174.367 82.2432L174.37 82.2532L179.977 80.1152ZM179.977 59.3145L185.776 60.8517C185.778 60.8469 185.779 60.8422 185.78 60.8374L179.977 59.3145ZM189.278 40.3447L184.514 36.6976L184.508 36.706L189.278 40.3447ZM195.724 54.4805L200.759 57.7429C200.77 57.7256 200.782 57.7082 200.793 57.6908L195.724 54.4805ZM191.036 64.6611L185.236 63.1258C185.229 63.1524 185.222 63.1792 185.215 63.2059L191.036 64.6611ZM191.842 74.3291L187.086 77.9874C187.104 78.0109 187.122 78.0342 187.141 78.0575L191.842 74.3291ZM203.927 72.1318L199.163 68.4834L199.156 68.4931L203.927 72.1318ZM207.735 64.002L201.919 62.5285C201.918 62.5346 201.916 62.5407 201.914 62.5467L207.735 64.002ZM208.321 53.1621L214.254 52.2681C214.25 52.2373 214.245 52.2065 214.24 52.1757L208.321 53.1621ZM206.563 35.7246C207.964 35.7246 208.826 36.0851 209.482 36.601C210.212 37.1754 211.119 38.293 211.928 40.4635L223.172 36.2709C221.833 32.6797 219.834 29.476 216.902 27.1695C213.895 24.8045 210.339 23.7246 206.563 23.7246V35.7246ZM211.936 40.484C212.775 42.7098 213.234 45.2542 213.234 48.1816H225.234C225.234 43.9802 224.571 39.9816 223.164 36.2504L211.936 40.484ZM213.234 48.1816C213.234 51.0059 212.81 54.2107 211.884 57.8259L223.509 60.803C224.634 56.4103 225.234 52.1934 225.234 48.1816H213.234ZM211.895 57.7814C210.299 63.8215 207.54 69.3996 203.57 74.5468L213.073 81.875C217.99 75.4988 221.48 68.4793 223.497 60.8475L211.895 57.7814ZM203.569 74.5479C198.734 80.8207 194.556 82.7578 191.109 82.7578V94.7578C199.772 94.7578 207.069 89.6636 213.073 81.874L203.569 74.5479ZM191.109 82.7578C189.672 82.7578 188.772 82.3893 188.087 81.8577C187.332 81.2713 186.409 80.1444 185.583 77.9773L174.37 82.2532C175.741 85.8478 177.773 89.0422 180.728 91.3366C183.755 93.6859 187.323 94.7578 191.109 94.7578V82.7578ZM185.587 77.9873C184.808 75.9349 184.365 73.4973 184.365 70.5938H172.365C172.365 74.7215 172.997 78.6315 174.367 82.2432L185.587 77.9873ZM184.365 70.5938C184.365 67.7408 184.808 64.5037 185.776 60.8517L174.177 57.7772C172.996 62.2307 172.365 66.5131 172.365 70.5938H184.365ZM185.78 60.8374C187.382 54.7332 190.126 49.1267 194.049 43.9834L184.508 36.706C179.641 43.0862 176.185 50.1262 174.173 57.7915L185.78 60.8374ZM194.043 43.9919C198.873 37.6814 203.073 35.7246 206.563 35.7246V23.7246C197.847 23.7246 190.523 28.8479 184.514 36.6976L194.043 43.9919ZM203.927 41.8887C197.856 41.8887 193.559 46.6839 190.655 51.2702L200.793 57.6908C201.985 55.8084 202.952 54.7507 203.62 54.2137C204.251 53.7068 204.321 53.8887 203.927 53.8887V41.8887ZM190.688 51.218C188.165 55.1122 186.306 59.0834 185.236 63.1258L196.836 66.1965C197.524 63.5982 198.79 60.7823 200.759 57.7429L190.688 51.218ZM185.215 63.2059C184.688 65.3144 184.377 67.4011 184.377 69.4219H196.377C196.377 68.6107 196.505 67.5235 196.857 66.1163L185.215 63.2059ZM184.377 69.4219C184.377 72.4104 185.119 75.4302 187.086 77.9874L196.598 70.6708C196.585 70.6546 196.541 70.5958 196.492 70.4339C196.44 70.2594 196.377 69.9393 196.377 69.4219H184.377ZM187.141 78.0575C189.535 81.076 192.921 82.4531 196.529 82.4531V70.4531C196.382 70.4531 196.303 70.4401 196.279 70.4353C196.258 70.431 196.281 70.4336 196.332 70.457C196.385 70.481 196.441 70.5145 196.489 70.5524C196.535 70.5894 196.552 70.6123 196.543 70.6007L187.141 78.0575ZM196.529 82.4531C201.708 82.4531 205.765 79.6153 208.697 75.7705L199.156 68.4931C197.694 70.4101 196.819 70.4531 196.529 70.4531V82.4531ZM208.69 75.7803C211.001 72.7636 212.599 69.2867 213.556 65.4572L201.914 62.5467C201.309 64.9672 200.368 66.9103 199.163 68.4834L208.69 75.7803ZM213.552 65.4754C214.666 61.0776 214.916 56.6593 214.254 52.2681L202.388 54.0561C202.801 56.7938 202.66 59.6021 201.919 62.5285L213.552 65.4754ZM214.24 52.1757C213.861 49.9021 213.086 47.3982 211.393 45.3659C209.489 43.0811 206.829 41.8887 203.927 41.8887V53.8887C203.747 53.8887 203.406 53.8508 203.005 53.666C202.601 53.4794 202.325 53.23 202.174 53.0481C202.04 52.8871 202.051 52.8381 202.125 53.0297C202.199 53.2211 202.308 53.5763 202.403 54.1485L214.24 52.1757ZM251.827 39.9785L256.262 44.0199C257.853 42.2744 258.271 39.7581 257.332 37.5915L251.827 39.9785ZM243.551 49.0605L239.219 53.212C240.369 54.4117 241.964 55.0809 243.626 55.0601C245.288 55.0392 246.866 54.3302 247.986 53.1019L243.551 49.0605ZM231.612 53.9678L236.696 57.1539L236.697 57.1528L231.612 53.9678ZM227.145 64.2217L232.997 65.5432C233.002 65.5239 233.006 65.5044 233.01 65.485L227.145 64.2217ZM230.221 75.0615L227.494 80.4061C227.508 80.4135 227.523 80.4208 227.537 80.4281L230.221 75.0615ZM240.694 70.0078L246.489 68.4497C245.891 66.2265 244.073 64.5413 241.811 64.1127C239.549 63.6841 237.242 64.5875 235.872 66.4379L240.694 70.0078ZM243.038 78.7236L247.498 82.7374C248.858 81.2262 249.36 79.129 248.832 77.1655L243.038 78.7236ZM217.184 78.7236L222.683 76.324C222.672 76.2983 222.66 76.2727 222.649 76.2473L217.184 78.7236ZM216.158 59.2412L222.005 60.5904C222.007 60.5807 222.009 60.5711 222.011 60.5614L216.158 59.2412ZM224.508 41.4434L229.276 45.0848C229.28 45.0806 229.283 45.0763 229.286 45.072L224.508 41.4434ZM240.621 37.7021C242.004 37.7021 242.929 38.0525 243.667 38.5976C244.468 39.1898 245.425 40.297 246.322 42.3655L257.332 37.5915C255.836 34.1425 253.729 31.1114 250.796 28.9449C247.799 26.7312 244.317 25.7021 240.621 25.7021V37.7021ZM247.392 35.9371L239.116 45.0192L247.986 53.1019L256.262 44.0199L247.392 35.9371ZM247.883 44.9091C245.763 42.6972 242.955 41.3027 239.669 41.3027V53.3027C239.632 53.3027 239.57 53.2988 239.489 53.2817C239.408 53.2645 239.33 53.2384 239.263 53.2079C239.121 53.1434 239.112 53.1004 239.219 53.212L247.883 44.9091ZM239.669 41.3027C236.56 41.3027 233.934 42.6543 231.889 44.3459C229.87 46.0166 228.106 48.263 226.527 50.7828L236.697 57.1528C237.902 55.2292 238.872 54.1431 239.538 53.5921C240.179 53.062 240.19 53.3027 239.669 53.3027V41.3027ZM226.528 50.7817C223.978 54.8506 222.149 58.9191 221.279 62.9583L233.01 65.485C233.507 63.1766 234.657 60.4091 236.696 57.1539L226.528 50.7817ZM221.292 62.9001C220.877 64.7367 220.632 66.5571 220.632 68.3232H232.632C232.632 67.6479 232.728 66.734 232.997 65.5432L221.292 62.9001ZM220.632 68.3232C220.632 73.2585 222.615 77.917 227.494 80.4061L232.948 69.717C232.838 69.661 232.809 69.6288 232.819 69.6383C232.831 69.65 232.835 69.6594 232.825 69.6409C232.802 69.5988 232.632 69.2485 232.632 68.3232H220.632ZM227.537 80.4281C229.157 81.238 230.907 81.6475 232.711 81.6475V69.6475C232.72 69.6475 232.754 69.6489 232.803 69.6605C232.853 69.672 232.888 69.6871 232.904 69.695L227.537 80.4281ZM232.711 81.6475C238.28 81.6475 242.505 77.6458 245.517 73.5777L235.872 66.4379C234.709 68.0085 233.785 68.8877 233.149 69.337C232.545 69.764 232.431 69.6475 232.711 69.6475V81.6475ZM234.9 71.5659L237.244 80.2817L248.832 77.1655L246.489 68.4497L234.9 71.5659ZM238.578 74.7098C234.36 79.397 230.947 80.7803 228.316 80.7803V92.7803C235.647 92.7803 242.048 88.7924 247.498 82.7374L238.578 74.7098ZM228.316 80.7803C226.897 80.7803 225.964 80.4275 225.242 79.9054C224.466 79.3438 223.544 78.2965 222.683 76.324L211.684 81.1233C213.167 84.5219 215.272 87.5029 218.207 89.6268C221.197 91.7903 224.658 92.7803 228.316 92.7803V80.7803ZM222.649 76.2473C221.627 73.9917 221.06 71.3598 221.06 68.25H209.06C209.06 72.8551 209.908 77.2056 211.718 81.2L222.649 76.2473ZM221.06 68.25C221.06 65.9338 221.359 63.3863 222.005 60.5904L210.312 57.8921C209.492 61.4438 209.06 64.9021 209.06 68.25H221.06ZM222.011 60.5614C223.283 54.9232 225.691 49.78 229.276 45.0848L219.739 37.8019C215.121 43.8489 211.963 50.571 210.305 57.921L222.011 60.5614ZM229.286 45.072C233.569 39.432 237.366 37.7021 240.621 37.7021V25.7021C232.255 25.7021 225.31 30.4664 219.729 37.8147L229.286 45.072ZM252.267 35.291L251.169 29.3922C248.702 29.8513 246.781 31.7975 246.354 34.2707L252.267 35.291ZM264.864 32.9473L270.653 34.526C271.196 32.5336 270.677 30.4019 269.278 28.8828C267.879 27.3637 265.797 26.6708 263.767 27.0485L264.864 32.9473ZM262.374 43.1279L256.486 41.9734C255.993 44.4908 257.154 47.0435 259.376 48.3253C261.598 49.607 264.389 49.3343 266.321 47.6466L262.374 43.1279ZM274.02 32.4346L277.292 27.4057C274.943 25.8766 271.847 26.1784 269.837 28.1326L274.02 32.4346ZM283.248 38.4404L287.233 42.9261C288.632 41.6833 289.371 39.8588 289.231 37.9927C289.092 36.1265 288.089 34.4324 286.521 33.4116L283.248 38.4404ZM268.819 51.2578L264.835 46.7721C263.133 48.2833 262.433 50.6267 263.027 52.8233L268.819 51.2578ZM276.876 81.0674L279.7 86.3615C282.166 85.0459 283.398 82.2008 282.668 79.5019L276.876 81.0674ZM263.692 88.0986L257.793 89.194C258.142 91.0742 259.367 92.6754 261.09 93.5049C262.813 94.3344 264.829 94.2927 266.516 93.3928L263.692 88.0986ZM258.565 60.4863L264.465 59.391C263.938 56.5557 261.469 54.4959 258.585 54.4864C255.702 54.4768 253.219 56.5201 252.674 59.3519L258.565 60.4863ZM254.903 83.8506L256.513 89.6306C258.854 88.9788 260.57 86.9794 260.86 84.5669L254.903 83.8506ZM243.331 87.0732L237.418 86.053C237.069 88.0799 237.782 90.1447 239.307 91.5241C240.833 92.9035 242.959 93.4051 244.941 92.8533L243.331 87.0732ZM253.364 41.1898L265.962 38.846L263.767 27.0485L251.169 29.3922L253.364 41.1898ZM259.076 31.3686C257.889 35.7182 257.016 39.2731 256.486 41.9734L268.262 44.2824C268.709 42.0022 269.495 38.7701 270.653 34.526L259.076 31.3686ZM266.321 47.6466C270.638 43.8757 274.6 40.2389 278.202 36.7365L269.837 28.1326C266.408 31.4662 262.606 34.9583 258.427 38.6093L266.321 47.6466ZM270.747 37.4634L279.975 43.4693L286.521 33.4116L277.292 27.4057L270.747 37.4634ZM279.263 33.9547L264.835 46.7721L272.804 55.7435L287.233 42.9261L279.263 33.9547ZM263.027 52.8233L271.084 82.6328L282.668 79.5019L274.612 49.6924L263.027 52.8233ZM274.052 75.7733L260.869 82.8045L266.516 93.3928L279.7 86.3615L274.052 75.7733ZM269.592 87.0033L264.465 59.391L252.666 61.5817L257.793 89.194L269.592 87.0033ZM252.674 59.3519C251.134 67.3476 249.891 75.2751 248.946 83.1342L260.86 84.5669C261.771 76.9963 262.969 69.3477 264.457 61.6208L252.674 59.3519ZM253.294 78.0705L241.721 81.2932L244.941 92.8533L256.513 89.6306L253.294 78.0705ZM249.244 88.0935L258.179 36.3113L246.354 34.2707L237.418 86.053L249.244 88.0935ZM294.161 46.2041L293.222 40.2781C290.897 40.6466 289.003 42.3399 288.377 44.6085L294.161 46.2041ZM293.136 50.3789L287.269 49.1217C287.263 49.1485 287.258 49.1753 287.252 49.2022L293.136 50.3789ZM292.33 54.4072L286.447 53.2305C286.051 55.2102 286.677 57.2563 288.113 58.6752C289.549 60.0942 291.602 60.6958 293.577 60.2762L292.33 54.4072ZM304.049 51.917L310.036 52.3075C310.158 50.4327 309.395 48.6089 307.975 47.3796C306.554 46.1503 304.639 45.6575 302.802 46.048L304.049 51.917ZM303.39 62.0244L304.426 67.9342C307.152 67.456 309.197 65.1761 309.377 62.4149L303.39 62.0244ZM290.279 64.5879L288.93 58.7415C286.632 59.2718 284.858 61.0988 284.396 63.4112L290.279 64.5879ZM289.767 67.5176L295.672 68.5776C295.682 68.5211 295.692 68.4644 295.7 68.4076L289.767 67.5176ZM289.254 70.374L283.348 69.314C283.008 71.2124 283.6 73.1588 284.941 74.5451C286.282 75.9315 288.207 76.5889 290.116 76.3118L289.254 70.374ZM302.877 68.3965L308.862 68.8148C308.989 67.0043 308.289 65.2338 306.959 63.999C305.629 62.7643 303.811 62.198 302.015 62.4587L302.877 68.3965ZM301.925 82.0195L302.423 87.9988C305.374 87.7529 307.704 85.3915 307.91 82.4379L301.925 82.0195ZM275.191 87.0732L269.272 86.0909C268.94 88.0931 269.643 90.1276 271.139 91.4983C272.636 92.869 274.725 93.39 276.69 92.8831L275.191 87.0732ZM283.907 34.5586L283.051 28.62C280.464 28.9929 278.416 30.9977 277.988 33.5762L283.907 34.5586ZM308.297 31.043L314.282 31.4636C314.409 29.6537 313.711 27.8835 312.382 26.6483C311.053 25.4131 309.237 24.8455 307.441 25.1043L308.297 31.043ZM307.345 44.5928L307.893 50.5676C310.822 50.2987 313.124 47.9469 313.33 45.0134L307.345 44.5928ZM288.377 44.6085C287.957 46.1309 287.587 47.6354 287.269 49.1217L299.003 51.6361C299.27 50.388 299.584 49.1093 299.945 47.7997L288.377 44.6085ZM287.252 49.2022L286.447 53.2305L298.214 55.5839L299.019 51.5556L287.252 49.2022ZM293.577 60.2762L305.296 57.7859L302.802 46.048L291.083 48.5383L293.577 60.2762ZM298.062 51.5265L297.402 61.6339L309.377 62.4149L310.036 52.3075L298.062 51.5265ZM302.353 56.1147C296.746 57.0984 292.256 57.9741 288.93 58.7415L291.628 70.4342C294.651 69.7368 298.901 68.9036 304.426 67.9342L302.353 56.1147ZM284.396 63.4112C284.182 64.4821 283.994 65.5542 283.833 66.6275L295.7 68.4076C295.832 67.5278 295.986 66.6468 296.163 65.7646L284.396 63.4112ZM283.861 66.4576L283.348 69.314L295.16 71.434L295.672 68.5776L283.861 66.4576ZM290.116 76.3118L303.739 74.3343L302.015 62.4587L288.392 64.4363L290.116 76.3118ZM296.892 67.9782L295.939 81.6012L307.91 82.4379L308.862 68.8148L296.892 67.9782ZM301.427 76.0403C293.922 76.6656 284.647 78.4381 273.693 81.2634L276.69 92.8831C287.318 90.142 295.865 88.5453 302.423 87.9988L301.427 76.0403ZM281.11 88.0556L289.826 35.541L277.988 33.5762L269.272 86.0909L281.11 88.0556ZM284.763 40.4972L309.153 36.9816L307.441 25.1043L283.051 28.62L284.763 40.4972ZM302.312 30.6224L301.359 44.1722L313.33 45.0134L314.282 31.4636L302.312 30.6224ZM306.796 38.6179C301.903 39.0673 297.376 39.6194 293.222 40.2781L295.101 52.1301C298.954 51.5192 303.216 50.9972 307.893 50.5676L306.796 38.6179ZM311.227 35.2178L309.506 29.4698C307.327 30.1219 305.705 31.9495 305.315 34.1897L311.227 35.2178ZM339.864 38.6602L333.865 38.5963C333.865 38.6028 333.864 38.6093 333.864 38.6157L339.864 38.6602ZM327.413 58.5088L323.651 53.8344C321.644 55.4495 320.892 58.1656 321.783 60.583L327.413 58.5088ZM335.909 76.0137L339.979 80.4225C341.951 78.6017 342.474 75.6923 341.26 73.2985L335.909 76.0137ZM324.41 86.3408L318.816 88.5096C319.526 90.3407 321.087 91.7085 322.995 92.1716C324.904 92.6347 326.918 92.1345 328.388 90.8323L324.41 86.3408ZM316.573 66.126L322.168 63.9572C321.272 61.6479 319.05 60.126 316.573 60.126V66.126ZM316.5 66.126V60.126C313.603 60.126 311.12 62.1955 310.598 65.0447L316.5 66.126ZM313.863 83.8506L315.473 89.6306C317.839 88.9717 319.565 86.9373 319.829 84.4955L313.863 83.8506ZM302.291 87.0732L296.316 86.53C296.137 88.4935 296.935 90.4194 298.449 91.6818C299.963 92.9443 302.001 93.3822 303.901 92.8533L302.291 87.0732ZM303.902 77.332L309.807 78.396C309.809 78.384 309.812 78.3721 309.814 78.3601L303.902 77.332ZM320.455 46.79L318.519 41.111C316.619 41.7588 315.169 43.314 314.655 45.2547L320.455 46.79ZM318.258 56.751L312.381 55.5411C311.915 57.8036 312.79 60.1327 314.629 61.5296C316.469 62.9265 318.948 63.1432 321.002 62.0867L318.258 56.751ZM323.312 53.3086L327.205 57.8736C327.222 57.8596 327.238 57.8454 327.254 57.8312L323.312 53.3086ZM327.12 48.5479L321.875 45.634C321.768 45.8264 321.672 46.0245 321.587 46.2275L327.12 48.5479ZM312.947 40.9657C320.363 38.7458 326.002 37.7754 330.05 37.7754V25.7754C324.332 25.7754 317.422 27.0999 309.506 29.4698L312.947 40.9657ZM330.05 37.7754C331.369 37.7754 332.335 37.8921 333.011 38.0496C333.688 38.2069 333.956 38.3768 334.002 38.4085C334.007 38.4123 333.909 38.3302 333.844 38.1917C333.794 38.0847 333.869 38.1652 333.865 38.5963L345.864 38.724C345.906 34.7915 344.409 31.0508 340.893 28.5846C337.783 26.4027 333.852 25.7754 330.05 25.7754V37.7754ZM333.864 38.6157C333.835 42.5476 331.345 47.643 323.651 53.8344L331.175 63.1832C339.985 56.0933 345.796 47.9563 345.864 38.7046L333.864 38.6157ZM321.783 60.583C322.621 62.8564 325.671 69.0969 330.559 78.7288L341.26 73.2985C336.187 63.3015 333.573 57.8721 333.043 56.4346L321.783 60.583ZM331.839 71.6049C329.347 73.9054 325.552 77.3146 320.432 81.8493L328.388 90.8323C333.522 86.285 337.393 82.8095 339.979 80.4225L331.839 71.6049ZM330.004 84.172L322.168 63.9572L310.979 68.2948L318.816 88.5096L330.004 84.172ZM316.573 60.126H316.5V72.126H316.573V60.126ZM310.598 65.0447C309.405 71.5593 308.502 77.615 307.898 83.2057L319.829 84.4955C320.396 79.2463 321.252 73.4857 322.402 67.2072L310.598 65.0447ZM312.254 78.0705L300.681 81.2932L303.901 92.8533L315.473 89.6306L312.254 78.0705ZM308.266 87.6165C308.334 86.8727 308.806 83.9537 309.807 78.396L297.997 76.2681C297.046 81.5502 296.443 85.1253 296.316 86.53L308.266 87.6165ZM309.814 78.3601L317.138 36.2458L305.315 34.1897L297.991 76.304L309.814 78.3601ZM314.655 45.2547C314.187 47.0212 313.771 48.7898 313.406 50.5606L325.16 52.9804C325.479 51.4309 325.844 49.8792 326.255 48.3254L314.655 45.2547ZM313.406 50.5606L312.381 55.5411L324.135 57.9609L325.16 52.9804L313.406 50.5606ZM321.002 62.0867C323.174 60.9698 325.239 59.5503 327.205 57.8736L319.418 48.7436C318.063 49.8989 316.76 50.7743 315.514 51.4152L321.002 62.0867ZM327.254 57.8312C329.513 55.8625 331.524 53.5616 332.653 50.8682L321.587 46.2275C321.447 46.5614 320.919 47.4344 319.369 48.786L327.254 57.8312ZM332.365 51.4617C332.966 50.3804 333.486 48.9647 333.486 47.3027H321.486C321.486 46.422 321.763 45.8364 321.875 45.634L332.365 51.4617ZM333.486 47.3027C333.486 45.3272 332.749 42.9582 330.582 41.3141C328.727 39.9073 326.658 39.6914 325.362 39.6914V51.6914C325.357 51.6914 325.152 51.6929 324.821 51.609C324.482 51.5233 323.924 51.3259 323.329 50.8744C322.701 50.3979 322.187 49.7544 321.86 49.0114C321.549 48.3037 321.486 47.6861 321.486 47.3027H333.486ZM325.362 39.6914C323.204 39.6914 320.789 40.3371 318.519 41.111L322.391 52.4691C323.327 52.1501 324.057 51.9437 324.604 51.8211C325.18 51.6921 325.4 51.6914 325.362 51.6914V39.6914ZM372.896 47.1562L377.139 51.3989C378.067 50.4711 378.665 49.2649 378.842 47.9648L372.896 47.1562ZM360.738 60.3398L365.125 64.4338C365.15 64.4061 365.176 64.3782 365.201 64.3501L360.738 60.3398ZM354.659 66.9316L359.085 70.9826L359.094 70.9726L354.659 66.9316ZM349.093 73.6699L344.1 70.3417C342.833 72.2436 342.755 74.7008 343.902 76.6785C345.048 78.6562 347.218 79.8108 349.499 79.6562L349.093 73.6699ZM366.378 72.498L372.34 73.1676C372.539 71.4 371.943 69.6353 370.713 68.3501C369.483 67.0648 367.747 66.3915 365.972 66.5118L366.378 72.498ZM364.84 86.1943L365.002 92.1921C367.994 92.1113 370.468 89.8381 370.802 86.8639L364.84 86.1943ZM333.199 88.4648L327.199 88.4324C327.19 90.1732 327.937 91.8322 329.247 92.9789C330.556 94.1257 332.299 94.6471 334.024 94.4079L333.199 88.4648ZM333.272 74.915L328.717 71.0103C327.792 72.0893 327.28 73.4615 327.273 74.8826L333.272 74.915ZM345.504 61.5117L341.122 57.4136L341.116 57.419L345.504 61.5117ZM358.175 47.9619L362.557 52.06C364.25 50.2494 364.656 47.5839 363.577 45.3518C362.499 43.1197 360.159 41.7806 357.688 41.9817L358.175 47.9619ZM344.625 49.6465L338.629 49.4244C338.563 51.2206 339.305 52.952 340.652 54.1423C341.998 55.3326 343.808 55.8564 345.582 55.5696L344.625 49.6465ZM345.138 35.8037L344.665 29.8224C341.629 30.0622 339.255 32.5384 339.142 35.5816L345.138 35.8037ZM374.801 33.46L380.739 34.3219C381.001 32.5163 380.427 30.6896 379.18 29.3581C377.932 28.0266 376.147 27.3349 374.328 27.4786L374.801 33.46ZM368.654 42.9136C366.47 45.0977 362.309 49.6148 356.275 56.3296L365.201 64.3501C371.277 57.5883 375.222 53.3164 377.139 51.3989L368.654 42.9136ZM356.352 56.2459C354.285 58.4606 352.242 60.6755 350.224 62.8907L359.094 70.9726C361.08 68.7933 363.09 66.6137 365.125 64.4338L356.352 56.2459ZM350.233 62.8807C347.553 65.8089 345.44 68.3319 344.1 70.3417L354.085 76.9981C354.894 75.7853 356.492 73.8161 359.085 70.9826L350.233 62.8807ZM349.499 79.6562L366.784 78.4843L365.972 66.5118L348.687 67.6837L349.499 79.6562ZM360.415 71.8285L358.877 85.5247L370.802 86.8639L372.34 73.1676L360.415 71.8285ZM364.678 80.1965C351.905 80.5417 341.119 81.3087 332.375 82.5218L334.024 94.4079C342.174 93.2772 352.482 92.5305 365.002 92.1921L364.678 80.1965ZM339.199 88.4973L339.272 74.9475L327.273 74.8826L327.199 88.4324L339.199 88.4973ZM337.828 78.8198C339.784 76.5376 343.777 72.159 349.891 65.6045L341.116 57.419C335.024 63.9504 330.862 68.5073 328.717 71.0103L337.828 78.8198ZM349.886 65.6098L362.557 52.06L353.792 43.8638L341.122 57.4136L349.886 65.6098ZM357.688 41.9817C353.309 42.3382 348.633 42.9208 343.668 43.7233L345.582 55.5696C350.285 54.8097 354.643 54.2693 358.662 53.9421L357.688 41.9817ZM350.621 49.8686L351.134 36.0258L339.142 35.5816L338.629 49.4244L350.621 49.8686ZM345.61 41.7851L375.273 39.4413L374.328 27.4786L344.665 29.8224L345.61 41.7851ZM368.863 32.598C368.42 35.6531 367.782 40.2404 366.951 46.3477L378.842 47.9648C379.671 41.8651 380.303 37.3215 380.739 34.3219L368.863 32.598Z" fill="black" mask="url(#path-1-outside-1_1_9910)"/>
<path d="M55.2913 104.777C79.1287 104.777 98.4528 85.4529 98.4528 61.6154C98.4528 37.778 79.1287 18.4539 55.2913 18.4539C31.4538 18.4539 12.1297 37.778 12.1297 61.6154C12.1297 85.4529 31.4538 104.777 55.2913 104.777Z" fill="#67BBF2"/>
<path d="M11.1431 61.6153C10.8369 44.0475 21.9822 27.1381 38.2397 20.4488C67.6244 8.01938 100.255 29.7238 100.282 61.6153C100.443 86.135 79.8219 106.687 55.2912 106.315C31.0603 106.339 10.7494 85.855 11.1431 61.6153ZM13.1141 61.6153C12.8625 78.3584 23.5659 94.4563 39.0753 100.765C66.8609 112.464 97.8906 91.7372 97.8622 61.6153C97.8753 31.4913 66.8697 10.7713 39.0775 22.4678C23.5703 28.7788 12.8669 44.8722 13.1162 61.6153H13.1141Z" fill="black"/>
<path d="M33.2129 92.9295C33.2129 92.9295 38.6335 81.2941 33.5957 65.3888C32.5391 62.0507 28.2297 58.7585 28.2297 58.7585C28.6935 56.6563 28.4922 50.6604 29.1966 44.0498C29.9185 37.2707 30.52 30.076 39.1935 26.1845C55.276 18.9679 67.6616 23.5901 73.7625 33.272C76.4947 37.6076 79.461 42.3238 80.4825 48.8141C81.8541 57.5248 79.1963 61.9632 78.6057 69.8316C78.015 77.7001 82.635 92.061 82.635 92.061C82.635 92.061 78.8135 91.151 77.3588 87.686C77.3588 87.686 77.3347 95.386 74.6638 96.3682C73.3141 96.8648 75.2916 92.2448 69.8447 87.266C69.1535 86.6338 69.2279 97.7682 62.8032 99.6888C61.821 99.982 64.645 93.5332 60.6922 87.2485C60.2788 86.5901 60.6266 97.3766 54.4907 99.6538C53.1388 100.155 55.1644 92.9776 51.8569 85.936C50.9644 84.0373 51.1329 94.032 43.2294 96.7182C42.35 97.0179 45.7954 90.9301 43.5554 86.1963C43.0063 85.037 42.5491 92.0238 33.2107 92.9295H33.2129Z" fill="#2944C2" stroke="black" stroke-width="1.23047" stroke-linejoin="round"/>
<path d="M32.095 32.2481C32.095 32.2481 35.1465 28.735 40.1975 33.7531C40.1975 33.7531 44.59 27.0856 53.5259 30.3822C62.4618 33.6787 61.6087 40.9937 61.1515 44.1284C60.2853 50.0478 54.7422 53.6506 54.7422 53.6506C54.7422 53.6506 47.2412 56.3828 39.3947 56.5622C31.5481 56.7415 28.514 55.8469 28.514 55.8469C28.514 55.8469 28.2909 44.1437 29.435 39.3509C30.579 34.5581 32.095 32.2481 32.095 32.2481Z" fill="#67BBF2" stroke="black" stroke-width="1.23047" stroke-linejoin="round"/>
<path d="M36.1659 61.3748C36.1659 61.3748 37.0409 63.0241 39.3925 64.2404C43.3125 66.2682 50.5247 67.5194 59.5043 66.3688C71.8637 64.7829 73.4322 57.0829 70.2231 52.8523C63.6125 44.1351 61.834 52.8129 51.4784 54.1079C44.7956 54.9435 45.815 52.3994 33.8012 54.7379C28.1356 55.8404 24.9878 57.4635 23.6293 59.126C22.1047 60.9898 22.715 62.8951 22.2643 64.0282C21.409 66.1676 19.3922 69.276 20.7615 70.1904C22.1287 71.1048 22.004 68.8451 26.5147 67.0535C31.0253 65.2641 32.4581 65.1919 34.3503 63.1204C36.2447 61.0488 36.1681 61.3726 36.1681 61.3726L36.1659 61.3748Z" fill="#F5882D" stroke="black" stroke-width="1.23047" stroke-linejoin="round"/>
<path d="M41.9431 59.5415C41.9431 59.5415 42.8203 65.8152 41.8206 67.2327C40.8209 68.6502 33.0881 68.4971 32.2416 68.0027C31.395 67.5083 32.1212 64.8593 32.1212 64.8593C32.1212 64.8593 33.6131 64.109 35.5469 61.858C37.9947 59.0099 41.9409 59.5415 41.9409 59.5415H41.9431Z" fill="white" stroke="black" stroke-width="1.23047" stroke-linecap="round" stroke-linejoin="round"/>
<path d="M35.3378 59.6862C36.138 59.096 36.4152 58.1139 35.957 57.4926C35.4988 56.8714 34.4786 56.8461 33.6784 57.4363C32.8782 58.0265 32.601 59.0085 33.0592 59.6298C33.5175 60.2511 34.5376 60.2763 35.3378 59.6862Z" fill="black"/>
<path d="M40.2762 46.1453C38.7625 50.6363 34.16 53.2285 30.1153 51.7563C26.134 50.306 24.4693 45.546 26.2675 41.2847C28.0656 37.0235 32.2919 35.0263 35.9997 36.2535C39.7075 37.4806 41.7222 41.8556 40.2762 46.1431V46.1453Z" fill="white" stroke="black" stroke-width="1.23047" stroke-miterlimit="10"/>
<path d="M56.4016 43.6576C56.7284 38.6849 53.0031 34.3914 48.081 34.0679C43.1588 33.7444 38.9037 37.5134 38.5769 42.4862C38.2501 47.459 41.9754 51.7525 46.8975 52.0759C51.8197 52.3994 56.0748 48.6304 56.4016 43.6576Z" fill="white" stroke="black" stroke-width="1.23047" stroke-miterlimit="10"/>
<path d="M29.0281 42.9211C29.0281 42.9211 29.1331 41.9039 28.2406 41.8076C27.3503 41.7114 26.3638 40.8232 26.3638 40.8232" stroke="#D88282" stroke-width="0.527344" stroke-linecap="round" stroke-linejoin="round"/>
<path d="M29.9447 41.9215C29.9447 41.9215 29.3715 41.5211 29.6297 40.8758C29.8878 40.2305 30.065 40.108 30.0781 39.8893C30.0912 39.6705 28.8006 39.4211 28.4309 38.929" stroke="#D88282" stroke-width="0.527344" stroke-linecap="round" stroke-linejoin="round"/>
<path d="M32.1694 39.688C32.1694 39.688 32.5894 39.1389 32.3203 38.522C32.0512 37.9052 31.6181 36.9427 31.7384 36.5117" stroke="#D88282" stroke-width="0.527344" stroke-linecap="round" stroke-linejoin="round"/>
<path d="M33.425 39.8608C33.425 39.8608 34.954 39.3839 35.2187 38.7101C35.4834 38.0364 36.0587 37.0673 36.6975 36.8354" stroke="#D88282" stroke-width="0.527344" stroke-linecap="round" stroke-linejoin="round"/>
<path d="M35.6212 40.9217C35.6212 40.9217 35.9975 40.2151 35.8116 39.4145C35.6256 38.6139 35.3675 38.3689 35.3675 38.3689" stroke="#D88282" stroke-width="0.527344" stroke-linecap="round" stroke-linejoin="round"/>
<path d="M37.0322 40.1824C37.0322 40.1824 37.8219 40.0227 38.0975 39.1608C38.3731 38.2989 38.3972 37.6624 38.3972 37.6624" stroke="#D88282" stroke-width="0.527344" stroke-linecap="round" stroke-linejoin="round"/>
<path d="M25.4974 45.2332C25.4974 45.2332 25.6965 44.881 26.6459 44.6142C27.5952 44.3473 28.374 44.7826 28.8334 44.4829" stroke="#D88282" stroke-width="0.527344" stroke-linecap="round" stroke-linejoin="round"/>
<path d="M26.2369 48.3571C26.2369 48.3571 27.7331 48.694 28.0678 48.0574C28.4025 47.4208 28.8225 45.9836 28.8225 45.9836" stroke="#D88282" stroke-width="0.527344" stroke-linecap="round" stroke-linejoin="round"/>
<path d="M28.0677 48.0574C28.0677 48.0574 28.2099 48.9433 28.5227 49.2036C28.8356 49.4639 29.3846 49.7374 29.5399 50.1508C29.6952 50.5642 29.179 51.4633 29.179 51.4633" stroke="#D88282" stroke-width="0.527344" stroke-linecap="round" stroke-linejoin="round"/>
<path d="M36.4481 43.6474C36.4481 43.6474 37.065 43.9996 37.5637 43.3739C38.0625 42.7483 38.4825 42.208 38.4825 42.208" stroke="#D88282" stroke-width="0.527344" stroke-linecap="round" stroke-linejoin="round"/>
<path d="M35.269 44.4128C35.269 44.4128 34.8971 44.9378 34.8993 45.4694C34.9015 46.001 35.8925 45.9769 35.5796 46.8322C35.4243 47.2522 35.0087 47.4535 34.9103 47.8319C34.8118 48.2103 34.3196 49.5863 34.3196 49.5863C34.3196 49.5863 34.6915 50.0325 34.6368 50.5969C34.5821 51.1613 34.4837 51.8132 34.4837 51.8132" stroke="#D88282" stroke-width="0.527344" stroke-linecap="round" stroke-linejoin="round"/>
<path d="M34.3196 49.5841C34.3196 49.5841 32.7906 49.1554 32.6134 48.5035C32.4362 47.8516 33.1865 47.3157 33.1865 47.3157" stroke="#D88282" stroke-width="0.527344" stroke-linecap="round" stroke-linejoin="round"/>
<path d="M37.4259 46.3118C37.4259 46.3118 37.3778 47.3333 37.7431 47.6133C38.1084 47.8933 39.2394 47.9611 39.2394 47.9611" stroke="#D88282" stroke-width="0.527344" stroke-linecap="round" stroke-linejoin="round"/>
<path d="M43.9775 45.2421C43.9775 45.2421 43.2534 45.1021 42.9953 45.6905C42.7372 46.279 42.6278 46.8193 42.6278 46.8193C42.6278 46.8193 41.79 46.7668 40.9303 47.5674C40.25 48.2018 40.3244 48.4708 40.3244 48.4708" stroke="#D88282" stroke-width="0.527344" stroke-linecap="round" stroke-linejoin="round"/>
<path d="M42.6277 46.8191C42.6277 46.8191 42.5381 46.7951 42.7262 47.832C42.9143 48.8688 43.3474 48.6698 43.2884 49.571C43.2293 50.4723 43.4196 50.9163 43.4196 50.9163" stroke="#D88282" stroke-width="0.527344" stroke-linecap="round" stroke-linejoin="round"/>
<path d="M38.6991 41.5801C38.6991 41.5801 40.2566 42.7985 41.6828 42.6913C41.6828 42.6913 41.6741 42.8729 41.6303 43.4745C41.5866 44.076 41.2628 44.4763 40.4753 44.752C39.6878 45.0276 38.9682 45.7845 38.9682 45.7845" stroke="#D88282" stroke-width="0.527344" stroke-linecap="round" stroke-linejoin="round"/>
<path d="M41.6828 42.6936C41.6828 42.6936 42.9166 42.1533 43.9862 42.3326C45.0559 42.512 45.3753 43.4854 45.3753 43.4854" stroke="#D88282" stroke-width="0.527344" stroke-linecap="round" stroke-linejoin="round"/>
<path d="M43.4481 42.2955C43.4481 42.2955 43.2293 41.9871 43.6362 41.4467C44.0431 40.9064 44.3974 40.7839 44.3974 40.7839" stroke="#D88282" stroke-width="0.527344" stroke-linecap="round" stroke-linejoin="round"/>
<path d="M40.4775 37.8001C40.4775 37.8001 42.3259 37.5179 43.0456 37.9686C43.7653 38.4192 43.5794 39.3029 44.345 39.6289C45.1106 39.9548 45.7778 39.8323 45.7778 39.8323" stroke="#D88282" stroke-width="0.527344" stroke-linecap="round" stroke-linejoin="round"/>
<path d="M43.5357 38.5308C43.5357 38.5308 43.0544 38.9573 42.9625 39.8105" stroke="#D88282" stroke-width="0.527344" stroke-linecap="round" stroke-linejoin="round"/>
<path d="M46.1518 34.1536C46.1518 34.1536 45.9659 35.4551 46.749 36.2623C47.5322 37.0695 48.02 36.7589 48.2059 37.0717C48.3918 37.3845 48.1228 38.3295 48.1228 38.3295" stroke="#D88282" stroke-width="0.527344" stroke-linecap="round" stroke-linejoin="round"/>
<path d="M51.3472 34.928C51.3472 34.928 50.96 35.7199 51.3056 36.5161C51.6512 37.3124 51.9465 37.3583 51.6993 38.0561C51.4522 38.7539 50.5509 39.2374 50.5509 39.2374" stroke="#D88282" stroke-width="0.527344" stroke-linecap="round" stroke-linejoin="round"/>
<path d="M51.6972 38.0562C51.6972 38.0562 52.6028 38.964 52.5241 39.4693" stroke="#D88282" stroke-width="0.527344" stroke-linecap="round" stroke-linejoin="round"/>
<path d="M52.371 41.8362C52.371 41.8362 53.0163 40.9852 54.1057 41.333C55.195 41.6787 56.4222 42.8446 56.4222 42.8446" stroke="#D88282" stroke-width="0.527344" stroke-linecap="round" stroke-linejoin="round"/>
<path d="M54.554 48.6085C54.554 48.6085 53.8037 48.3394 53.655 47.5432C53.5062 46.7469 53.8234 46.6397 53.4821 46.2679C53.1409 45.896 51.6709 45.4541 51.6709 45.4541" stroke="#D88282" stroke-width="0.527344" stroke-linecap="round" stroke-linejoin="round"/>
<path d="M51.2312 48.5015C51.2312 48.5015 52.0209 49.3043 51.9946 49.9605C51.9706 50.6168 51.9334 50.8968 51.9334 50.8968" stroke="#D88282" stroke-width="0.527344" stroke-linecap="round" stroke-linejoin="round"/>
<path d="M47.8406 47.1604C47.8406 47.1604 48.2212 49.1226 47.5825 49.687C47.2281 50.002 46.5981 49.7876 46.259 50.2776C45.9199 50.7676 45.9571 51.5748 45.9571 51.5748" stroke="#D88282" stroke-width="0.527344" stroke-linecap="round" stroke-linejoin="round"/>
<path d="M47.5825 49.6892C47.5825 49.6892 48.5385 50.1814 48.9038 51.0389C49.0569 51.3976 48.9825 51.9708 48.9825 51.9708" stroke="#D88282" stroke-width="0.527344" stroke-linecap="round" stroke-linejoin="round"/>
<path d="M39.7709 47.3572C37.9028 51.0869 33.7793 53.0906 30.1153 51.7563C26.134 50.306 24.4693 45.546 26.2675 41.2847C28.0656 37.0235 32.2919 35.0263 35.9997 36.2535C37.3756 36.7085 38.5131 37.5835 39.329 38.7188" stroke="black" stroke-width="1.23047" stroke-linejoin="round"/>
<path d="M56.4016 43.6576C56.7284 38.6849 53.0031 34.3914 48.081 34.0679C43.1588 33.7444 38.9037 37.5134 38.5769 42.4862C38.2501 47.459 41.9754 51.7525 46.8975 52.0759C51.8197 52.3994 56.0748 48.6304 56.4016 43.6576Z" stroke="black" stroke-width="1.23047" stroke-linejoin="round"/>
<path d="M53.1493 43.3545C53.7652 41.4879 53.1196 39.5969 51.7073 39.1309C50.295 38.6649 48.6508 39.8004 48.0349 41.667C47.419 43.5337 48.0646 45.4246 49.477 45.8906C50.8893 46.3566 52.5334 45.2211 53.1493 43.3545Z" fill="black"/>
<path d="M32.5783 44.7953C33.0151 43.2841 32.3972 41.7782 31.1983 41.4317C29.9993 41.0852 28.6734 42.0293 28.2366 43.5405C27.7999 45.0516 28.4178 46.5575 29.6167 46.904C30.8156 47.2505 32.1416 46.3064 32.5783 44.7953Z" fill="black"/>
<path d="M61.8909 59.3884C61.8909 59.3884 60.9919 59.8894 60.3116 60.1497C59.6312 60.41 58.3494 60.7075 58.3494 60.7075L65.5331 69.0484L69.9737 67.0097C69.9737 67.0097 68.5956 65.334 68.0378 64.6362C67.48 63.9384 61.8931 59.3862 61.8931 59.3862L61.8909 59.3884Z" fill="white" stroke="black" stroke-width="1.23047" stroke-linecap="round" stroke-linejoin="round"/>
<path d="M66.9528 67.0251C66.9528 67.0251 70.5272 64.7741 70.7022 67.9023C70.8837 71.1266 67.6922 71.9951 66.0362 70.5054C64.0916 68.7576 66.9506 67.0229 66.9506 67.0229L66.9528 67.0251Z" fill="#FF431F" stroke="black" stroke-width="1.23047" stroke-linecap="round" stroke-linejoin="round"/>
<path d="M35.9056 61.5234C35.9056 61.5234 37.3735 59.839 40.4141 59.5284C43.4547 59.2178 53.1103 61.7881 58.3472 60.7075C64.3585 59.4672 64.6056 55.7222 64.6056 55.7222" stroke="black" stroke-width="1.23047" stroke-linecap="round" stroke-linejoin="round"/>
<path d="M24.7866 46.1978C24.7866 46.1978 27.6981 48.4553 31.7756 48.4137C36.2316 48.3678 39.2109 47.1449 39.2109 47.1449C39.2109 47.1449 39.7622 53.4953 32.4756 53.6134C24.6925 53.7381 24.7866 46.1978 24.7866 46.1978Z" fill="#67BBF2" stroke="black" stroke-width="1.23047" stroke-linejoin="round"/>
<path d="M56.7678 46.0032C56.7678 46.0032 50.8091 47.6657 46.0513 47.3069C41.2935 46.9482 38.2572 46.3444 38.2572 46.3444C38.2572 46.3444 39.5216 54.2632 48.2038 54.0729C56.8838 53.8825 56.7678 46.0032 56.7678 46.0032Z" fill="#67BBF2" stroke="black" stroke-width="1.23047" stroke-linejoin="round"/>
<path d="M54.2369 7.61689C54.2369 7.61689 45.3775 3.80189 41.3175 5.7247C39.655 6.5122 39.6025 7.90564 39.5369 9.08251C39.445 10.78 39.9328 12.2588 40.6088 12.7597C41.755 13.6085 54.1997 11.5697 54.1997 11.5697C54.1997 11.5697 67.4691 14.2822 68.5409 11.7381C69.0069 10.6291 68.4753 9.43251 68.3419 8.28845C68.1691 6.80533 68.1669 5.44689 66.6619 4.89783C63.9997 3.92439 54.2347 7.61689 54.2347 7.61689H54.2369Z" fill="#F5882D" stroke="black" stroke-width="1.23047" stroke-linejoin="round"/>
<path d="M50.5312 16.1108C50.5312 16.1108 49.6694 4.5871 54.0837 4.5346C58.4959 4.4821 57.085 16.3427 57.085 16.3427" fill="#2944C2"/>
<path d="M50.5312 16.1108C50.5312 16.1108 49.6694 4.5871 54.0837 4.5346C58.4959 4.4821 57.085 16.3427 57.085 16.3427" stroke="black" stroke-width="1.23047" stroke-linejoin="round"/>
<path d="M64.7871 24.1609C63.2275 20.1709 58.4784 16.5462 58.4784 16.5462H58.4675C57.1943 16.334 55.8337 16.1874 54.3812 16.1131C52.7209 16.0277 51.1721 16.0387 49.7262 16.1306C49.4615 16.2531 46.0337 17.9352 43.435 24.3993C41.2321 29.879 41.394 33.6962 41.394 33.6984C44.59 33.3549 48.3 33.1843 52.3512 33.4009C57.4568 33.6743 62.324 34.2693 66.3753 34.8949H66.3578C66.3578 34.8949 66.3446 28.1487 64.785 24.1609H64.7871Z" fill="#FFD957" stroke="black" stroke-width="1.23047" stroke-linejoin="round"/>
<path d="M49.7267 16.1309C49.7267 16.1309 49.7319 16.1309 49.7319 16.1284H49.7241L49.7267 16.1309Z" fill="#2944C2" stroke="black" stroke-width="1.23047" stroke-linejoin="round"/>
<path d="M49.7328 16.1269L49.7467 16.1196C49.7467 16.1196 49.742 16.1196 49.7328 16.1269Z" fill="#2944C2" stroke="black" stroke-width="1.23047" stroke-linejoin="round"/>
<path d="M41.3963 33.6984C34.1753 34.4728 29.5728 36.1199 29.5728 36.1199C29.5728 36.1199 28.8794 17.4737 49.7263 16.1306L49.7438 16.1218C49.7438 16.1218 46.1388 17.6706 43.435 24.3993C41.2322 29.879 41.3941 33.6984 41.3941 33.6984H41.3963Z" fill="#CD4434" stroke="black" stroke-width="1.23047" stroke-linejoin="round"/>
<path d="M66.36 34.8908C66.36 34.8908 66.3468 28.1489 64.7872 24.1589C63.2275 20.1689 58.4784 16.5442 58.4784 16.5442H58.4675C77.5687 19.6854 77.1728 36.9601 77.1728 36.9601C77.1728 36.9601 72.8022 35.8883 66.3775 34.8951H66.36V34.8908Z" fill="#50B861" stroke="black" stroke-width="1.23047" stroke-linejoin="round"/>
</svg>
